<svg xmlns="http://www.w3.org/2000/svg" xml:space="preserve" width="144" height="145" style="fill-rule:evenodd;clip-rule:evenodd;stroke-linejoin:round;stroke-miterlimit:2"><path d="M0 .426h144v144H0z" style="fill:none"/><path d="M113.715 79.584H13.019A7.022 7.022 0 0 1 6 72.565a7.022 7.022 0 0 1 7.019-7.019h100.696L87.419 39.932a7.022 7.022 0 0 1-.13-9.926 7.022 7.022 0 0 1 9.925-.13l38.665 37.661a7.023 7.023 0 0 1 0 10.056l-38.665 37.662a7.022 7.022 0 0 1-9.925-.13 7.022 7.022 0 0 1 .13-9.926l26.296-25.615Z"/></svg>