<svg xmlns="http://www.w3.org/2000/svg" xml:space="preserve" width="144" height="145" style="fill-rule:evenodd;clip-rule:evenodd;stroke-linejoin:round;stroke-miterlimit:2"><path d="M0 .426h144v144H0z" style="fill:none"/><path d="M105.333 119.093h13.334V25.76h-13.334v93.333ZM38.667 85.76c1.889 0 3.472-.639 4.75-1.917 1.277-1.278 1.916-2.861 1.916-4.75 0-1.889-.639-3.472-1.916-4.75-1.278-1.278-2.861-1.917-4.75-1.917-1.889 0-3.473.639-4.75 1.917C32.639 75.621 32 77.204 32 79.093c0 1.889.639 3.472 1.917 4.75 1.277 1.278 2.861 1.917 4.75 1.917Zm0 20c1.889 0 3.472-.639 4.75-1.917 1.277-1.278 1.916-2.861 1.916-4.75 0-1.889-.639-3.472-1.916-4.75-1.278-1.278-2.861-1.917-4.75-1.917-1.889 0-3.473.639-4.75 1.917C32.639 95.621 32 97.204 32 99.093c0 1.889.639 3.472 1.917 4.75 1.277 1.278 2.861 1.917 4.75 1.917ZM32 65.76h53.333V39.093H32V65.76Zm26.667 20c1.889 0 3.472-.639 4.75-1.917 1.277-1.278 1.916-2.861 1.916-4.75 0-1.889-.639-3.472-1.916-4.75-1.278-1.278-2.861-1.917-4.75-1.917-1.889 0-3.473.639-4.75 1.917C52.639 75.621 52 77.204 52 79.093c0 1.889.639 3.472 1.917 4.75 1.277 1.278 2.861 1.917 4.75 1.917Zm0 20c1.889 0 3.472-.639 4.75-1.917 1.277-1.278 1.916-2.861 1.916-4.75 0-1.889-.639-3.472-1.916-4.75-1.278-1.278-2.861-1.917-4.75-1.917-1.889 0-3.473.639-4.75 1.917C52.639 95.621 52 97.204 52 99.093c0 1.889.639 3.472 1.917 4.75 1.277 1.278 2.861 1.917 4.75 1.917Zm20-20c1.889 0 3.472-.639 4.75-1.917 1.277-1.278 1.916-2.861 1.916-4.75 0-1.889-.639-3.472-1.916-4.75-1.278-1.278-2.861-1.917-4.75-1.917-1.889 0-3.473.639-4.75 1.917C72.639 75.621 72 77.204 72 79.093c0 1.889.639 3.472 1.917 4.75 1.277 1.278 2.861 1.917 4.75 1.917Zm0 20c1.889 0 3.472-.639 4.75-1.917 1.277-1.278 1.916-2.861 1.916-4.75 0-1.889-.639-3.472-1.916-4.75-1.278-1.278-2.861-1.917-4.75-1.917-1.889 0-3.473.639-4.75 1.917C72.639 95.621 72 97.204 72 99.093c0 1.889.639 3.472 1.917 4.75 1.277 1.278 2.861 1.917 4.75 1.917ZM92 112.426v-80H25.333v80H92Zm13.333 20c-2.555 0-4.805-.611-6.75-1.833-1.944-1.222-3.527-2.833-4.75-4.833h-68.5c-3.666 0-6.805-1.306-9.416-3.917-2.611-2.611-3.917-5.75-3.917-9.417v-80c0-3.666 1.306-6.805 3.917-9.416 2.611-2.611 5.75-3.917 9.416-3.917h68.5c1.223-2 2.806-3.611 4.75-4.833 1.945-1.223 4.195-1.834 6.75-1.834h13.334c3.666 0 6.805 1.306 9.416 3.917 2.611 2.611 3.917 5.75 3.917 9.417v93.333c0 3.667-1.306 6.806-3.917 9.417-2.611 2.611-5.75 3.916-9.416 3.916h-13.334Zm-80-20v-80 80Z" style="fill-rule:nonzero"/></svg>