<svg xmlns="http://www.w3.org/2000/svg" xml:space="preserve" width="144" height="145" style="fill-rule:evenodd;clip-rule:evenodd;stroke-linejoin:round;stroke-miterlimit:2"><path d="M0 .426h144v144H0z" style="fill:none"/><path d="M72 132.426c-8.3 0-16.1-1.575-23.4-4.725-7.3-3.15-13.65-7.425-19.05-12.825-5.4-5.4-9.675-11.75-12.825-19.05-3.15-7.3-4.725-15.1-4.725-23.4 0-8.3 1.575-16.1 4.725-23.4 3.15-7.3 7.425-13.65 12.825-19.05 5.4-5.4 11.75-9.675 19.05-12.825 7.3-3.15 15.1-4.725 23.4-4.725 8.3 0 16.1 1.575 23.4 4.725 7.3 3.15 13.65 7.425 19.05 12.825 5.4 5.4 9.675 11.75 12.825 19.05 3.15 7.3 4.725 15.1 4.725 23.4v8.7c0 5.9-2.025 10.925-6.075 15.075-4.05 4.15-9.025 6.225-14.925 6.225-3.5 0-6.8-.75-9.9-2.25-3.1-1.5-5.7-3.65-7.8-6.45-2.9 2.9-6.175 5.075-9.825 6.525-3.65 1.45-7.475 2.175-11.475 2.175-8.3 0-15.375-2.925-21.225-8.775C44.925 87.801 42 80.726 42 72.426s2.925-15.375 8.775-21.225c5.85-5.85 12.925-8.775 21.225-8.775s15.375 2.925 21.225 8.775c5.85 5.85 8.775 12.925 8.775 21.225v8.7c0 2.6.85 4.8 2.55 6.6 1.7 1.8 3.85 2.7 6.45 2.7s4.75-.9 6.45-2.7c1.7-1.8 2.55-4 2.55-6.6v-8.7c0-13.4-4.65-24.75-13.95-34.05-9.3-9.3-20.65-13.95-34.05-13.95-13.4 0-24.75 4.65-34.05 13.95-9.3 9.3-13.95 20.65-13.95 34.05 0 13.4 4.65 24.75 13.95 34.05 9.3 9.3 20.65 13.95 34.05 13.95h30v12H72Zm0-42c5 0 9.25-1.75 12.75-5.25S90 77.426 90 72.426s-1.75-9.25-5.25-12.75S77 54.426 72 54.426s-9.25 1.75-12.75 5.25S54 67.426 54 72.426s1.75 9.25 5.25 12.75S67 90.426 72 90.426Z" style="fill-rule:nonzero"/></svg>