<svg xmlns="http://www.w3.org/2000/svg" xml:space="preserve" width="144" height="145" style="fill-rule:evenodd;clip-rule:evenodd;stroke-linejoin:round;stroke-miterlimit:2"><path d="M0 .426h144v144H0z" style="fill:none"/><path d="M60 15.426H14a7 7 0 0 0-7 7v108a7 7 0 0 0 7 7h108a7 7 0 0 0 7-7v-46c0-3.863-3.137-7-7-7s-7 3.137-7 7v39H21v-94h39c3.863 0 7-3.136 7-7 0-3.863-3.137-7-7-7Zm53.414 6L50.985 85.543a7.004 7.004 0 0 0 .132 9.899 7.003 7.003 0 0 0 9.898-.132L123 31.65v20.776c0 3.864 3.137 7 7 7s7-3.136 7-7v-38a6.971 6.971 0 0 0-2.034-4.933l-.018-.019-.058-.056-.06-.059-.012-.011-.021-.019-.029-.027-.016-.015-.023-.022-.022-.02-.021-.019-.026-.023-.016-.014-.025-.023-.028-.024-.039-.034-.069-.058-.03-.025a6.897 6.897 0 0 0-1.101-.745l-.026-.015-.027-.014-.037-.02-.019-.009A6.964 6.964 0 0 0 130 7.426H92c-3.863 0-7 3.137-7 7 0 3.864 3.137 7 7 7h21.414Z"/></svg>