<svg xmlns="http://www.w3.org/2000/svg" xml:space="preserve" width="144" height="144" style="fill-rule:evenodd;clip-rule:evenodd;stroke-linejoin:round;stroke-miterlimit:2"><path d="M0 0h144v144H0z" style="fill:none"/><path d="M36.652 61.421a37.389 37.389 0 0 1-2.136-12.495c0-20.688 16.796-37.485 37.484-37.485 20.688 0 37.484 16.797 37.484 37.485a37.3 37.3 0 0 1-4.473 17.763l-27.503 62.28a6.022 6.022 0 0 1-11.017.001L38.926 66.571a37.222 37.222 0 0 1-2.269-5.137l-.006-.013h.001ZM72 31.41c9.667 0 17.516 7.849 17.516 17.516 0 9.667-7.849 17.515-17.516 17.515-9.667 0-17.516-7.848-17.516-17.515 0-9.667 7.849-17.516 17.516-17.516Z"/></svg>