<svg xmlns="http://www.w3.org/2000/svg" xml:space="preserve" width="144" height="145" style="fill-rule:evenodd;clip-rule:evenodd;stroke-linejoin:round;stroke-miterlimit:2"><path d="M0 .426h144v144H0z" style="fill:none"/><path d="M44.727 132.426c-3 0-5.568-1.068-7.704-3.204-2.137-2.137-3.205-4.705-3.205-7.705V23.335c0-3 1.068-5.568 3.205-7.704 2.136-2.137 4.704-3.205 7.704-3.205h54.546c3 0 5.568 1.068 7.704 3.205 2.137 2.136 3.205 4.704 3.205 7.704v98.182c0 3-1.068 5.568-3.205 7.705-2.136 2.136-4.704 3.204-7.704 3.204H44.727Zm0-27.272v16.363h54.546v-16.363H44.727ZM72 118.79c1.545 0 2.841-.523 3.886-1.568 1.046-1.046 1.569-2.341 1.569-3.887 0-1.545-.523-2.841-1.569-3.886-1.045-1.045-2.341-1.568-3.886-1.568s-2.841.523-3.886 1.568c-1.046 1.045-1.569 2.341-1.569 3.886 0 1.546.523 2.841 1.569 3.887 1.045 1.045 2.341 1.568 3.886 1.568ZM44.727 94.244h54.546V39.699H44.727v54.545Zm0-65.454h54.546v-5.455H44.727v5.455Zm0 76.364v16.363-16.363Zm0-76.364v-5.455 5.455Z" style="fill-rule:nonzero"/></svg>